<svg width="48" height="48" viewBox="0 0 48 48" fill="none" xmlns="http://www.w3.org/2000/svg">
<path d="M23.9998 0.666656C11.1432 0.666656 0.666504 11.1433 0.666504 24C0.666504 36.8567 11.1432 47.3333 23.9998 47.3333C36.8565 47.3333 47.3332 36.8567 47.3332 24C47.3332 11.1433 36.8565 0.666656 23.9998 0.666656ZM31.8398 29.3667C32.5165 30.0433 32.5165 31.1633 31.8398 31.84C31.4898 32.19 31.0465 32.3533 30.6032 32.3533C30.1598 32.3533 29.7165 32.19 29.3665 31.84L23.9998 26.4733L18.6332 31.84C18.2832 32.19 17.8398 32.3533 17.3965 32.3533C16.9532 32.3533 16.5098 32.19 16.1598 31.84C15.4832 31.1633 15.4832 30.0433 16.1598 29.3667L21.5265 24L16.1598 18.6333C15.4832 17.9567 15.4832 16.8367 16.1598 16.16C16.8365 15.4833 17.9565 15.4833 18.6332 16.16L23.9998 21.5267L29.3665 16.16C30.0432 15.4833 31.1632 15.4833 31.8398 16.16C32.5165 16.8367 32.5165 17.9567 31.8398 18.6333L26.4732 24L31.8398 29.3667Z" fill="#00296B"/>
</svg>
